<?xml version="1.0" encoding="UTF-8"?>
<svg xmlns="http://www.w3.org/2000/svg" xmlns:xlink="http://www.w3.org/1999/xlink" width="24pt" height="24pt" viewBox="0 0 24 24" version="1.1">
<g id="surface40374128">
<path style=" stroke:none;fill-rule:nonzero;fill:rgb(94.901961%,94.901961%,94.901961%);fill-opacity:1;" d="M 10 2 L 9 3 L 5 3 C 4.449219 3 4 3.449219 4 4 C 4 4.550781 4.449219 5 5 5 L 19 5 C 19.550781 5 20 4.550781 20 4 C 20 3.449219 19.550781 3 19 3 L 15 3 L 14 2 Z M 5 7 L 5 20 C 5 21.101562 5.898438 22 7 22 L 17 22 C 18.101562 22 19 21.101562 19 20 L 19 7 Z M 9.410156 10.414062 C 9.664062 10.414062 9.921875 10.511719 10.113281 10.703125 L 12 12.589844 L 13.886719 10.703125 C 14.273438 10.316406 14.90625 10.316406 15.296875 10.703125 C 15.683594 11.09375 15.683594 11.726562 15.296875 12.113281 L 13.410156 14 L 15.296875 15.882812 C 15.683594 16.273438 15.683594 16.90625 15.296875 17.292969 C 14.90625 17.683594 14.273438 17.683594 13.886719 17.292969 L 12 15.410156 L 10.113281 17.292969 C 9.726562 17.683594 9.09375 17.683594 8.703125 17.292969 C 8.316406 16.90625 8.316406 16.273438 8.703125 15.882812 L 10.589844 14 L 8.703125 12.113281 C 8.316406 11.726562 8.316406 11.09375 8.703125 10.703125 C 8.898438 10.511719 9.15625 10.414062 9.410156 10.414062 Z M 9.410156 10.414062 "/>
</g>
</svg>
